<svg width="52" height="82" viewBox="0 0 52 82" fill="none" xmlns="http://www.w3.org/2000/svg">
<path fill-rule="evenodd" clip-rule="evenodd" d="M50 26.0976C50 29.9893 49.0812 33.6655 47.4495 36.9195L47.476 36.9196L25.9998 80L4.4775 36.8196L4.50067 36.8196C2.90011 33.5904 2 29.9495 2 26.0976C2 12.7889 12.7452 2.00003 26 2.00003C39.2548 2.00003 50 12.7889 50 26.0976ZM25.9999 37.2927C31.6077 37.2927 36.1537 32.7282 36.1537 27.0976C36.1537 21.467 31.6077 16.9025 25.9999 16.9025C20.3921 16.9025 15.8461 21.467 15.8461 27.0976C15.8461 32.7282 20.3921 37.2927 25.9999 37.2927Z" fill="url(#paint0_linear_98_83)"/>
<path fill-rule="evenodd" clip-rule="evenodd" d="M3.67793 34.9847C3.91865 35.5934 4.18337 36.1899 4.47091 36.773C4.47704 36.7854 4.48318 36.7978 4.48933 36.8103C4.49088 36.8134 4.49243 36.8165 4.49397 36.8196L4.4708 36.8196L25.9998 80L47.4827 36.9196L47.4562 36.9195C47.458 36.916 47.4597 36.9125 47.4615 36.9089C47.4686 36.8948 47.4757 36.8806 47.4828 36.8664C47.772 36.2863 48.0385 35.6928 48.2813 35.0872C49.3947 32.3094 50.0075 29.2753 50.0075 26.0976C50.0075 12.7889 39.259 2.00003 26 2.00003C12.741 2.00003 1.99252 12.7889 1.99252 26.0976C1.99252 29.2363 2.59035 32.2348 3.67793 34.9847ZM49.3831 37.5208C51.0599 34.0684 52 30.1905 52 26.0976C52 11.6843 40.3594 3.05176e-05 26 3.05176e-05C11.6406 3.05176e-05 0 11.6843 0 26.0976C0 30.1552 0.923933 34.0016 2.57382 37.4316C2.60468 37.5279 2.64305 37.6226 2.68895 37.7146L24.2179 80.8951C24.5556 81.5723 25.2453 82 25.9997 82C26.7541 82 27.4439 81.5724 27.7816 80.8952L49.2644 37.8148C49.3121 37.7192 49.3516 37.6209 49.3831 37.5208ZM25.9999 35.2927C30.509 35.2927 34.1644 31.6236 34.1644 27.0976C34.1644 22.5715 30.509 18.9025 25.9999 18.9025C21.4908 18.9025 17.8354 22.5715 17.8354 27.0976C17.8354 31.6236 21.4908 35.2927 25.9999 35.2927ZM36.1569 27.0976C36.1569 32.7282 31.6095 37.2927 25.9999 37.2927C20.3903 37.2927 15.8429 32.7282 15.8429 27.0976C15.8429 21.467 20.3903 16.9025 25.9999 16.9025C31.6095 16.9025 36.1569 21.467 36.1569 27.0976Z" fill="#2E6C97"/>
<path fill-rule="evenodd" clip-rule="evenodd" d="M45.5523 36.31C45.5838 36.2113 45.6232 36.1143 45.6704 36.0201C47.1654 33.0388 48.0081 29.6699 48.0081 26.0976C48.0081 13.8934 38.1547 4.00003 26 4.00003C13.8453 4.00003 3.9919 13.8934 3.9919 26.0976C3.9919 29.6334 4.81753 32.9699 6.28395 35.9286C6.32637 36.0141 6.36228 36.1019 6.39172 36.1912L25.9999 75.5314L45.5523 36.31ZM25.9998 80L4.4775 36.8196L4.50067 36.8196C4.49912 36.8165 4.49758 36.8134 4.49603 36.8103C4.48988 36.7978 4.48374 36.7854 4.47761 36.773C4.19016 36.1899 3.92553 35.5934 3.68488 34.9847C2.59764 32.2348 2 29.2363 2 26.0976C2 12.7889 12.7452 2.00003 26 2.00003C39.2548 2.00003 50 12.7889 50 26.0976C50 29.2753 49.3874 32.3094 48.2743 35.0872C48.0316 35.6928 47.7652 36.2863 47.4761 36.8664C47.469 36.8806 47.4619 36.8948 47.4548 36.9089C47.4531 36.9125 47.4513 36.916 47.4495 36.9195L47.476 36.9196L25.9998 80ZM38.1456 27.0976C38.1456 33.8328 32.7078 39.2927 25.9999 39.2927C19.292 39.2927 13.8542 33.8328 13.8542 27.0976C13.8542 20.3624 19.292 14.9025 25.9999 14.9025C32.7078 14.9025 38.1456 20.3624 38.1456 27.0976ZM36.1537 27.0976C36.1537 32.7282 31.6077 37.2927 25.9999 37.2927C20.3921 37.2927 15.8461 32.7282 15.8461 27.0976C15.8461 21.467 20.3921 16.9025 25.9999 16.9025C31.6077 16.9025 36.1537 21.467 36.1537 27.0976Z" fill="white" fill-opacity="0.1"/>
<defs>
<linearGradient id="paint0_linear_98_83" x1="26" y1="2.00003" x2="26" y2="80" gradientUnits="userSpaceOnUse">
<stop stop-color="#c8c8c8"/>
<stop offset="1" stop-color="c8c8c8"/>
</linearGradient>
</defs>
</svg>
